<svg width="734" height="640" viewBox="0 0 734 640" fill="none" xmlns="http://www.w3.org/2000/svg" xmlns:xlink="http://www.w3.org/1999/xlink">
<rect width="734" height="640" fill="url(#pattern0)"/>
<defs>
<pattern id="pattern0" patternContentUnits="objectBoundingBox" width="1" height="1">
<use xlink:href="#image0" transform="translate(-0.00408719) scale(0.0013624 0.0015625)"/>
</pattern>
<image id="image0" width="740" height="640" xlink:href="img/home.png"/>
</defs>
<path d="M224 532.7L444.8 540.7L514 527V548.7L445.5 568.4L224 557.4V532.7Z" fill="#3595F6" fill-opacity="0.75"/>
<path d="M225 531.7V506.7L445.3 510L515 506.7V526.7L445.7 539.7L225 531.7Z" fill="#3595F6" fill-opacity="0.75"/>
<path d="M225 505.7V480.7H446H515V503.7L447 510.7L225 505.7Z" fill="#3595F6" fill-opacity="0.75"/>
<path d="M225 481.7V456.7L446.3 453L514 459.7V481.7H446" fill="#3595F6" fill-opacity="0.75"/>
<path d="M225 455.7V429.7L446.5 426.4L515 437.4V458.7L446 452L225 455.7Z" fill="#3595F6" fill-opacity="0.75"/>
<path d="M224 428.7V405L445 392.7L516 415.7V437L445 424.7L224 428.7Z" fill="#3595F6" fill-opacity="0.75"/>
<path d="M224 406.7V381.7L446.2 365.4L516 394V414.7L445.7 393L224 406.7Z" fill="#3595F6" fill-opacity="0.75"/>
<path d="M224 381.7V356.7L446.5 336.4L516 373V393.7L444 365L224 381.7Z" fill="#3595F6" fill-opacity="0.75"/>
<path d="M224 355.7V331.7L447 307L516 351V372.7L446.7 334.7L224 355.7Z" fill="#3595F6" fill-opacity="0.75"/>
<path d="M224 330.7V306.7L446.5 278L516 329V349.7L445.7 307.4L224 330.7Z" fill="#3595F6" fill-opacity="0.75"/>
<path d="M223 306.7V282.7L445.3 249.7L516 309V328.7L446 278L223 306.7Z" fill="#3595F6" fill-opacity="0.75"/>
<path d="M224 281.7V257.7L445.2 222.7L515 286.7V307.7L446.3 249.4L224 281.7Z" fill="#3595F6" fill-opacity="0.75"/>
<path d="M224 257.7V232.7L446.3 194.7L515 265V285.7L446 221.7L224 257.7Z" fill="#3595F6" fill-opacity="0.75"/>
<path d="M224 231.7V206.7L444.8 163L515 242V264.7L446 191.4L224 231.7Z" fill="#3595F6" fill-opacity="0.75"/>
<path d="M225 207.7V182.7L445 134.7L515 219.7V242.7L444.3 163.4L225 207.7Z" fill="#3595F6" fill-opacity="0.75"/>
<path d="M224 182.7V157.7L443.8 105.7L515 198V220.7L445.3 134.4L224 182.7Z" fill="#3595F6" fill-opacity="0.75"/>
<path d="M224 157.7V131.7L446 75L515 176.7V197.7L445.7 106L224 157.7Z" fill="#3595F6" fill-opacity="0.75"/>

</svg>
